<svg width="192" height="192" viewBox="0 0 192 192" fill="none" xmlns="http://www.w3.org/2000/svg">
<path d="M37 155H32C32 157.761 34.2386 160 37 160V155ZM190.536 158.536C192.488 156.583 192.488 153.417 190.536 151.464L158.716 119.645C156.763 117.692 153.597 117.692 151.645 119.645C149.692 121.597 149.692 124.763 151.645 126.716L179.929 155L151.645 183.284C149.692 185.237 149.692 188.403 151.645 190.355C153.597 192.308 156.763 192.308 158.716 190.355L190.536 158.536ZM40.5355 1.46447C38.5829 -0.488155 35.4171 -0.488155 33.4645 1.46447L1.64466 33.2843C-0.307961 35.2369 -0.307961 38.4027 1.64466 40.3553C3.59728 42.308 6.76311 42.308 8.71573 40.3553L37 12.0711L65.2843 40.3553C67.2369 42.308 70.4027 42.308 72.3553 40.3553C74.308 38.4027 74.308 35.2369 72.3553 33.2843L40.5355 1.46447ZM37 160H187V150H37V160ZM42 155V5H32V155H42Z" fill="black"/>
<mask id="mask0_1_31" style="mask-type:luminance" maskUnits="userSpaceOnUse" x="43" y="56" width="101" height="92">
<circle cx="61" cy="130" r="9" fill="white"/>
<circle cx="116" cy="134" r="9" fill="white"/>
<circle cx="57" cy="89" r="9" fill="white"/>
<circle cx="52" cy="65" r="9" fill="white"/>
<circle cx="70" cy="108" r="9" fill="white"/>
<circle cx="84" cy="121" r="9" fill="white"/>
<circle cx="135" cy="139" r="9" fill="white"/>
<circle cx="93" cy="139" r="9" fill="white"/>
</mask>
<g mask="url(#mask0_1_31)">
<rect x="37" width="150" height="155" fill="url(#paint0_linear_1_31)"/>
</g>
<defs>
<linearGradient id="paint0_linear_1_31" x1="112" y1="0" x2="112" y2="155" gradientUnits="userSpaceOnUse">
<stop stop-color="#00F0FF"/>
<stop offset="1" stop-color="#AD00FF"/>
</linearGradient>
</defs>
</svg>
